<?xml version="1.0" encoding="UTF-8"?><svg id="Layer_2" xmlns="http://www.w3.org/2000/svg" viewBox="0 0 181.458 132.642"><defs><style>.cls-1{fill:#3fb43a;}</style></defs><g id="Layer_1-2"><path class="cls-1" d="M27.006,106.388c-3.955-2.942-7.902-5.349-11.294-8.378-4.68-4.18-8.943-8.828-13.376-13.284-.345-.347-.675-.727-.932-1.141-2.598-4.186-1.325-25.86,1.665-29.784,2.679-3.515,4.909-7.444,7.955-10.591,4.973-5.137,22.247-4.491,30.046,2.197,4.351,3.732,8.86,7.367,13.686,10.435,6.144,3.906,13.085,3.53,19.406.777,4.109-1.79,7.906-4.877,11.076-8.13,9.873-10.132,20.753-18.917,32.505-26.771,8.738-5.84,17.03-12.347,25.556-18.507,6.576-4.751,13.266-4.092,18.942,1.077,6.887,6.272,15.081,11.61,18.115,21.235,2.267,7.192,1.132,14.112-4.285,19.064-13.752,12.57-28.035,24.558-42.102,36.784-1.378,1.198-2.79,2.365-4.081,3.652-10.617,10.582-21.001,21.41-31.897,31.696-5.469,5.163-11.5,9.95-17.942,13.792-5.039,3.006-11.044,2.778-16.507-.319-12.565-7.123-25.099-14.29-36.535-23.802M128.803,38.2c-5.15,3.777-10.539,7.273-15.402,11.39-10.969,9.287-21.421,19.201-32.616,28.197-4.6,3.696-9.957,9.003-16.761,5.535-10.921-5.566-21.395-12.001-32.133-17.935-1.681-.929-4.7-2.185-5.458-1.493-1.881,1.72-4.339,4.919-3.815,6.73,1.188,4.112,3.139,8.929,6.363,11.357,10.558,7.951,21.543,15.431,32.899,22.193,10.143,6.04,18.527,4.274,26.87-4.055,14.491-14.468,28.858-29.063,43.51-43.366,4.448-4.342,9.748-7.8,14.502-11.846,2.773-2.359,6.209-4.649,7.583-7.752,1.542-3.481,2.017-8.031,1.258-11.771-.778-3.831-5.688-3.548-10.189.077-5.26,4.235-10.593,8.38-16.612,12.739Z"/></g></svg>