<?xml version="1.0" encoding="UTF-8"?><svg id="Layer_2" xmlns="http://www.w3.org/2000/svg" viewBox="0 0 516.777 414.195"><g id="Layer_1-2"><path d="M498.447,261.461c-9.45,19.463-21.372,36.628-35.871,52.322-17.408,18.844-36.934,34.814-58.193,49.018-17.134,11.448-35.802,19.922-54.516,27.931-14.618,6.256-30.237,10.474-45.803,14.515-12.628,3.279-25.665,4.419-38.113,8.34-1.386.437-2.969.339-4.46.34-21.665.018-43.371.779-64.977-.348-9.33-.487-18.859-2.522-28.213-4.653-12.487-2.844-24.416-7.274-36.513-11.185-11.506-3.72-22.585-8.493-32.874-15.222-12.25-8.012-24.567-15.872-35.875-25.197-15.195-12.532-29.419-25.957-40.05-42.789-6.948-11.002-12.855-22.489-16.861-34.879-3.358-10.385-5.721-21.005-6.057-31.968-.163-5.328.017-10.666-.034-15.998-.142-14.862,2.594-29.116,7.139-43.321,4.699-14.687,11.253-28.426,18.598-41.786,7.618-13.856,18.012-25.828,28.248-37.828,15.431-18.09,33.835-32.869,52.588-47.279,17.4-13.369,36.548-23.771,56.471-32.641,11.93-5.311,24.443-9.381,36.867-13.488,6.955-2.299,13.232-6.106,20.389-7.981,8.289-2.171,16.399-4.321,25.043-5.424,27.586-3.519,55.183-1.11,82.752-1.438,11.085-.132,22.234,1.757,33.322,4.018,9.602,1.958,18.988,4.316,28.246,7.324,21.383,6.947,41.858,15.59,60.403,28.789,16.721,11.9,29.355,27.051,40.851,43.76,9.407,13.673,15.175,28.783,20.195,44.221,3.667,11.277,5.58,23.091,5.588,35.079.004,6.666.106,13.335-.021,19.998-.252,13.214-1.243,26.261-4.61,39.216-3.426,13.18-7.033,26.167-13.658,38.554M223.588,29.117c-3.086.65-5.716,2.876-8.987,2.788-6.818-.182-12.856,2.806-19.112,4.745-6.794,2.105-13.271,5.239-20.078,7.292-17.309,5.22-33.098,13.755-48.718,22.473-12.772,7.128-23.721,16.943-35.152,26.089-17.281,13.825-31.025,30.374-43.032,48.683-8.161,12.446-14.196,25.924-19.18,39.837-2.813,7.853-5.902,16.075-6.261,24.245-.847,19.278-1.526,38.605,5.188,57.47,7.016,19.709,16.574,37.504,31.097,52.769,15.117,15.889,31.751,29.813,50.442,41.167,9.593,5.827,18.768,12.306,29.776,15.914,11.003,3.607,21.917,7.632,33.002,10.972,13.716,4.132,27.755,7.072,42.252,6.705,6.991-.177,13.898.261,20.801,1.684,4.176.86,8.911,1.791,12.809.662,9.347-2.706,18.744-2.346,28.192-2.326,7.518.016,14.551-2.776,21.756-4.208,5.978-1.188,12.179-2.885,18.168-4.363,13.897-3.429,27.248-8.197,40.444-13.468,24.679-9.858,47.357-23.175,68.577-39.262,17.383-13.178,31.382-29.316,42.916-47.426,8.967-14.079,16.022-29.217,20.052-45.833,3.781-15.588,6.312-31.068,5.52-47.075-.09-1.828-.221-3.693.022-5.493,1.516-11.245-1.106-22.222-3.496-32.889-2.44-10.887-6.724-21.478-11.466-31.713-4.144-8.944-9.869-16.947-15.7-24.821-10.763-14.534-23.572-26.94-38.883-36.733-13.373-8.554-27.479-15.283-42.718-19.953-14.939-4.578-29.432-10.7-45.372-11.17-1.284-.038-2.646-.457-3.807-1.033-3.396-1.685-6.963-1.838-10.67-1.937-10.456-.278-20.93.9-31.377-.916-9.215-1.602-18.435-1.759-27.674.73-12.586,3.39-25.517,4.973-39.33,6.396Z"/><path d="M358.736,278.92c-15.92,16.771-34.852,28.209-56.323,35.307-9.336,3.086-19.051,5.115-28.611,7.477-10.256,2.535-20.295,3.067-30.573,2.978-5.306-.046-10.615-.388-15.669-2.42-1.673-.673-3.528-1.007-5.332-1.219-27.03-3.182-48.288-16.408-64.794-37.593-5.094-6.538-8.173-14.018-7.425-22.696.426-4.946,5.576-12.279,9.857-13.326,4.213-1.029,10.123,2.298,13.018,7.477,2.028,3.628,3.896,7.346,5.828,11.028,4.897,9.33,13.98,13.991,22.097,19.689,7.962,5.59,16.761,10.039,26.192,11.745,7.886,1.426,15.48,5.228,23.845,3.919,1.626-.254,3.337-.156,4.992-.018,20.735,1.729,39.945-3.889,58.968-11.41,13.559-5.361,25.559-12.628,35.454-23.327,9.872-10.675,16.84-23.01,20.722-37.012,1.586-5.721,5.338-9.57,10.122-12.431,4.539-2.714,10.342,1.447,10.607,7.347.244,5.412-2.603,9.913-4.65,14.568-6.644,15.11-16.49,28.016-28.325,39.917Z"/><path d="M338.565,133.208c-5.332-9.682-3.743-18.707,3.805-23.577,5.441-3.51,10.721-2.604,15.953.391,4.862,2.783,6.087,7.262,5.338,12.401-.783,5.369-2.871,10.265-6.759,14.134-5.637,5.609-12.03,4.471-18.336-3.349Z"/><path d="M167.654,154.885c-7.074-1.664-10.485-6.506-11.343-12.739-.786-5.71,1.758-10.819,6.277-14.394,5.42-4.288,13.395-2.821,19.27,3.073,4.941,4.957,5.26,9.733.779,15.917-3.562,4.916-8.301,7.966-14.984,8.143Z"/></g></svg>