<?xml version="1.0" encoding="UTF-8"?><svg id="Layer_2" xmlns="http://www.w3.org/2000/svg" viewBox="0 0 191.336 179.5"><defs><style>.cls-1{fill:#d81e1e;}</style></defs><g id="Layer_1-2"><path class="cls-1" d="M15.491,3.499c2.62-2.423,5.459-2.706,8.521-3.139,12.379-1.75,22.756,3.129,32.841,9.211,3.76,2.267,6.934,5.165,8.909,9.199,2.284,4.663,6.023,7.815,10.486,10.3,4.27,2.378,7.54,6.005,11.01,9.346,7.726,7.44,15.721,6.65,22.371-1.594,8.375-10.383,17.717-19.752,29.202-26.94,10.306-6.45,25.872-4.308,33.465,6.198,4.12,5.701,8.531,11.639,6.478,19.142-1.612,5.895-5.067,11.135-8.489,16.246-5.831,8.712-13.642,15.919-19.063,24.931-2.99,4.97-1.873,7.861,3.805,8.932,11.324,2.137,20.288,8.954,29.81,14.613,4.388,2.608,6.556,6.86,6.18,12.274-.265,3.814-.495,7.727.048,11.481,1.37,9.464-2.715,17.201-7.259,24.803-4.292,7.181-12.331,8.81-19.391,4.39-11.534-7.22-24.044-12.719-35.42-20.272-6.875-4.565-14.381-8.17-21.5-12.38-3.019-1.785-5.552-1.972-8.759-.134-12.844,7.362-21.886,18.82-31.735,29.335-4.071,4.346-7.411,9.363-12.345,12.912-2.756,1.983-4.787,4.751-6.408,7.601-7.388,12.989-25.976,12.045-34.35,1.249-2.437-3.142-4.489-6.594-6.575-9.991-1.382-2.251-1.759-4.837-.348-7.142,4.558-7.446,7.424-15.962,14.685-21.706,4.282-3.388,7.724-7.707,10.739-12.392,4.747-7.377,12.309-12.104,18.211-18.416,11.315-12.102,9.845-10.068-1.158-20.195-6.048-5.567-12.327-11.102-18.695-16.427-5.258-4.397-12.054-6.272-17.037-11.15C5.856,46.086-1.358,38.261.218,26.004c.216-1.679.301-3.303,1.317-4.713,1.956-2.713,3.37-5.627,4.381-8.868,1.4-4.488,5.758-6.231,9.574-8.923M152.992,39.509c.487-6.328-1.219-8.696-5.289-6.854-6.993,3.165-14.196,6.723-18.046,13.604-5.146,9.196-12.657,15.583-21.027,21.473-7.996,5.627-11.629,5.63-19.482-.362-14.178-10.816-27.482-22.585-39.632-35.637-4.346-4.668-9.79-7.181-15.742-9.083-4.542-1.452-7.393.436-9.724,3.886-2.563,3.794.53,6.071,2.781,7.955,11.304,9.464,22.781,18.722,34.236,28.005,6.058,4.91,12.514,9.379,18.216,14.667,7.852,7.281,7.761,17.709.136,25.026-5.511,5.289-11.108,10.542-17.091,15.274-11.213,8.869-18.381,21.382-28.644,31.074-.466.44-.733,1.106-1.047,1.692-.67,1.253-1.031,2.536.295,3.591,1.08.859,2.188.476,3.249-.147,3.933-2.309,7.139-5.395,9.911-9.003,3.944-5.135,7.808-10.299,12.317-15.023,10.481-10.978,22.192-20.546,33.671-30.389,5.427-4.653,15.009-5.385,20.482-1.729,16.304,10.891,33.619,20.045,50.736,29.539,2.277,1.263,4.658,2.428,6.76-.034,2.087-2.443,2.037-5.565.311-7.899-4.563-6.17-11.255-11.407-18.065-12.367-9.308-1.313-16.766-6.031-24.876-9.333-12.11-4.93-13.251-14.084-4.044-23.463,5.25-5.348,10.54-10.659,15.925-15.87,5.431-5.255,9.928-11.171,13.682-18.595Z"/></g></svg>